<?xml version="1.0"?>
<svg xmlns="http://www.w3.org/2000/svg" viewBox="0 0 64 64" width="512px" height="512px" class=""><g><g id="Outline"><g><path d="M54,51a1,1,0,0,0-1,1v8H30V41a1,1,0,0,0-1-1H15a1,1,0,0,0-1,1V57a1,1,0,0,0,2,0V42H28V60H11V39a1,1,0,0,0-2,0V61a1,1,0,0,0,1,1H54a1,1,0,0,0,1-1V52A1,1,0,0,0,54,51Z" data-original="#000000" class="active-path" data-old_color="#000000" fill="#FFFFFF"/><path d="M61.638,28.229,51,19.425V10h1a1,1,0,0,0,1-1V5a1,1,0,0,0-1-1H42a1,1,0,0,0-1,1V9a1,1,0,0,0,1,1h1v2.805L32.639,4.229a1,1,0,0,0-1.276,0l-29,24A1,1,0,0,0,3,30H9v5a1,1,0,0,0,2,0V30H21v2.184A3,3,0,0,0,19,35v2a1,1,0,0,0,1,1h4a1,1,0,0,0,1-1V35a3,3,0,0,0-2-2.816V30H40v2.184A3,3,0,0,0,38,35v2a1,1,0,0,0,1,1h4a1,1,0,0,0,1-1V35a3,3,0,0,0-2-2.816V30H53V48a1,1,0,0,0,2,0V30h6a1,1,0,0,0,.638-1.771ZM23,36H21V35a1,1,0,0,1,2,0Zm19,0H40V35a1,1,0,0,1,2,0ZM43,6h8V8H43Zm9.9,22L32.639,11.229a1,1,0,0,0-1.276,0L18.137,22.175a1,1,0,0,0,1.275,1.541L32,13.3,49.765,28H14.235l2.081-1.722a1,1,0,0,0-1.275-1.541L11.1,28H5.777L32,6.3l12.04,9.965a1,1,0,0,0,1.275-1.541L45,14.46V10h4v7.77l-.588-.486a1,1,0,1,0-1.275,1.541L58.224,28Z" data-original="#000000" class="active-path" data-old_color="#000000" fill="#FFFFFF"/><path d="M29,26h6a1,1,0,0,0,1-1V19a1,1,0,0,0-1-1H29a1,1,0,0,0-1,1v6A1,1,0,0,0,29,26Zm1-6h4v4H30Z" data-original="#000000" class="active-path" data-old_color="#000000" fill="#FFFFFF"/><path d="M48,41a1,1,0,0,0-1-1H35a1,1,0,0,0-1,1V52H33a1,1,0,0,0-1,1v4a1,1,0,0,0,1,1H49a1,1,0,0,0,1-1V53a1,1,0,0,0-1-1H48Zm-2,5H42V42h4ZM36,42h4v4H36Zm0,6h4v4H36Zm12,8H34V54H48Zm-6-4V48h4v4Z" data-original="#000000" class="active-path" data-old_color="#000000" fill="#FFFFFF"/><path d="M26,51V47a1,1,0,0,0-2,0v4a1,1,0,0,0,2,0Z" data-original="#000000" class="active-path" data-old_color="#000000" fill="#FFFFFF"/></g></g></g> </svg>
